<svg width="37" height="37" viewBox="0 0 37 37" fill="none" xmlns="http://www.w3.org/2000/svg">
<path d="M25.9298 27.5571C22.995 29.9569 20.0026 31.0598 19.5008 31.2345C18.08 32.3798 16.5623 32.9858 15.1075 32.988C13.4685 32.9905 11.9668 32.2148 10.7647 30.7447C8.60591 28.1046 8.42232 24.3113 8.40821 23.503L5.60376 20.0734C3.88945 17.9769 3.35517 16.1534 4.24255 15.4278L5.54118 14.3659C6.4286 13.6402 8.10969 14.526 9.82397 16.6225L14.314 22.1134C14.7284 22.1747 15.1651 22.2502 15.6197 22.3428C15.8378 22.3872 15.9786 22.6001 15.9341 22.8182C15.8898 23.0363 15.6769 23.1771 15.4587 23.1326C12.8146 22.594 10.7698 22.6615 10.2642 22.6898L9.21652 23.5465C9.2419 24.3833 9.46403 27.8806 11.3888 30.2344C12.4472 31.5288 13.698 32.1841 15.1063 32.1819C16.3928 32.18 17.7557 31.6206 19.0475 30.5643C21.1391 28.854 22.1284 27.1932 22.6878 26.0063C20.9652 24.9102 19.0475 24.0668 16.982 23.4972C16.7674 23.438 16.6414 23.2161 16.7005 23.0015C16.7597 22.787 16.9817 22.6609 17.1962 22.7201C17.581 22.8262 17.9607 22.9414 18.3355 23.0658L23.0389 19.2197C22.8495 17.658 22.841 16.2561 22.8991 15.1357C22.8998 15.1212 22.9006 15.1066 22.9014 15.0921L20.5489 12.2152C20.408 12.0429 20.4335 11.789 20.6058 11.6481C20.7781 11.5072 21.032 11.5326 21.1729 11.705L22.9918 13.9292C23.1358 12.518 23.3657 11.5153 23.472 11.1015L20.7086 7.72204C19.2002 5.87742 17.9109 5.29235 17.5601 5.5792C17.2093 5.86605 17.5267 7.24586 19.0351 9.09048L20.1524 10.4569C20.2933 10.6292 20.2679 10.8832 20.0955 11.0241C19.9232 11.165 19.6693 11.1395 19.5284 10.9672L18.411 9.60076C16.6967 7.50428 16.1624 5.68078 17.0498 4.95516L18.3484 3.89326C19.2358 3.16764 20.917 4.05342 22.6312 6.14986L25.4359 9.57983C25.867 9.67584 27.182 10.0049 28.6448 10.7262C28.8445 10.8246 28.9265 11.0663 28.8281 11.2659C28.7297 11.4656 28.488 11.5477 28.2883 11.4492C26.9747 10.8015 25.7635 10.484 25.318 10.3802L24.2701 11.2372C24.1618 11.6505 23.8079 13.1331 23.7028 15.2028C23.5923 17.3792 23.7428 20.6572 25.0534 24.0712C27.5366 23.4536 29.197 22.2651 30.2437 21.4092C31.5355 20.3528 32.3543 19.1282 32.6117 17.8676C32.8935 16.4876 32.4996 15.1317 31.4412 13.8374C30.94 13.2244 30.2988 12.6596 29.5353 12.1585C29.3492 12.0363 29.2973 11.7865 29.4195 11.6004C29.5416 11.4143 29.7915 11.3624 29.9776 11.4846C30.8097 12.0307 31.5121 12.6506 32.0653 13.3271C33.2674 14.7971 33.7294 16.423 33.4016 18.0288C33.1106 19.4542 32.2152 20.8213 30.8107 21.9864C30.5305 22.4593 28.8627 25.1589 25.9298 27.5571ZM21.2209 29.6214C22.3852 29.0464 23.9082 28.1689 25.4195 26.9331C26.9337 25.6949 28.0959 24.3772 28.8899 23.3508C27.3402 24.2805 26.005 24.6823 25.0209 24.9078C24.888 25.0535 24.6238 25.3298 24.315 25.5824C24.0061 25.8349 23.6829 26.039 23.5137 26.1403C23.0975 27.0596 22.4388 28.2879 21.2209 29.6214ZM23.208 25.3821C23.3656 25.2833 23.5916 25.1326 23.8048 24.9583C24.0179 24.784 24.2105 24.5924 24.3386 24.4576C24.006 23.6043 23.7435 22.7589 23.5381 21.9354L20.8968 24.0953C21.6993 24.4783 22.4708 24.9078 23.208 25.3821ZM20.0766 23.7246L23.3385 21.0574C23.2755 20.7516 23.2202 20.4498 23.1716 20.1525L19.2234 23.381C19.5111 23.49 19.7956 23.6047 20.0766 23.7246ZM10.2897 21.8805C10.7172 21.8584 11.7458 21.8318 13.156 21.9708L9.19993 17.1328C8.48002 16.2524 7.73264 15.5672 7.09539 15.2033C6.62143 14.9327 6.22141 14.851 6.05146 14.9899C5.70067 15.2768 6.01806 16.6566 7.52642 18.5012L10.2897 21.8805ZM23.972 10.4395L24.6466 9.88785L22.0072 6.66007C20.4988 4.81545 19.2095 4.23038 18.8587 4.51722L18.4654 4.83884C19.3022 5.14381 20.3115 5.96297 21.3326 7.21172L23.972 10.4395L23.972 10.4395ZM8.86715 22.7908L9.54174 22.2392L6.90235 19.0114C5.88124 17.7627 5.2788 16.6109 5.14607 15.7302L4.75276 16.0518C4.40197 16.3387 4.71936 17.7185 6.22772 19.5631L8.86711 22.7909L8.86715 22.7908Z" fill="white"/>
</svg>
